<svg id="visual" viewBox="0 0 960 540" width="960" height="540" xmlns="http://www.w3.org/2000/svg" xmlns:xlink="http://www.w3.org/1999/xlink" version="1.1"><rect x="0" y="0" width="960" height="540" fill="#001220"></rect><path d="M0 187L32 210.7C64 234.3 128 281.7 192 282.5C256 283.3 320 237.7 384 213.7C448 189.7 512 187.3 576 199.7C640 212 704 239 768 261.5C832 284 896 302 928 311L960 320L960 541L928 541C896 541 832 541 768 541C704 541 640 541 576 541C512 541 448 541 384 541C320 541 256 541 192 541C128 541 64 541 32 541L0 541Z" fill="#fa7268"></path><path d="M0 298L32 303.5C64 309 128 320 192 326.2C256 332.3 320 333.7 384 329.5C448 325.3 512 315.7 576 317.2C640 318.7 704 331.3 768 317C832 302.7 896 261.3 928 240.7L960 220L960 541L928 541C896 541 832 541 768 541C704 541 640 541 576 541C512 541 448 541 384 541C320 541 256 541 192 541C128 541 64 541 32 541L0 541Z" fill="#f66b68"></path><path d="M0 297L32 289.3C64 281.7 128 266.3 192 281.3C256 296.3 320 341.7 384 366.2C448 390.7 512 394.3 576 376.7C640 359 704 320 768 312.5C832 305 896 329 928 341L960 353L960 541L928 541C896 541 832 541 768 541C704 541 640 541 576 541C512 541 448 541 384 541C320 541 256 541 192 541C128 541 64 541 32 541L0 541Z" fill="#f26467"></path><path d="M0 330L32 332C64 334 128 338 192 351.2C256 364.3 320 386.7 384 378.7C448 370.7 512 332.3 576 308.5C640 284.7 704 275.3 768 291C832 306.7 896 347.3 928 367.7L960 388L960 541L928 541C896 541 832 541 768 541C704 541 640 541 576 541C512 541 448 541 384 541C320 541 256 541 192 541C128 541 64 541 32 541L0 541Z" fill="#ee5d67"></path><path d="M0 343L32 336.2C64 329.3 128 315.7 192 326.7C256 337.7 320 373.3 384 381.3C448 389.3 512 369.7 576 351.8C640 334 704 318 768 323C832 328 896 354 928 367L960 380L960 541L928 541C896 541 832 541 768 541C704 541 640 541 576 541C512 541 448 541 384 541C320 541 256 541 192 541C128 541 64 541 32 541L0 541Z" fill="#ea5667"></path><path d="M0 396L32 401C64 406 128 416 192 402.7C256 389.3 320 352.7 384 340.5C448 328.3 512 340.7 576 349.2C640 357.7 704 362.3 768 359.3C832 356.3 896 345.7 928 340.3L960 335L960 541L928 541C896 541 832 541 768 541C704 541 640 541 576 541C512 541 448 541 384 541C320 541 256 541 192 541C128 541 64 541 32 541L0 541Z" fill="#e54f67"></path><path d="M0 377L32 379.5C64 382 128 387 192 397.8C256 408.7 320 425.3 384 426.2C448 427 512 412 576 405.8C640 399.7 704 402.3 768 404.8C832 407.3 896 409.7 928 410.8L960 412L960 541L928 541C896 541 832 541 768 541C704 541 640 541 576 541C512 541 448 541 384 541C320 541 256 541 192 541C128 541 64 541 32 541L0 541Z" fill="#e14867"></path><path d="M0 467L32 451.5C64 436 128 405 192 397.2C256 389.3 320 404.7 384 406C448 407.3 512 394.7 576 389.8C640 385 704 388 768 391.2C832 394.3 896 397.7 928 399.3L960 401L960 541L928 541C896 541 832 541 768 541C704 541 640 541 576 541C512 541 448 541 384 541C320 541 256 541 192 541C128 541 64 541 32 541L0 541Z" fill="#dc4167"></path><path d="M0 417L32 428.3C64 439.7 128 462.3 192 474.2C256 486 320 487 384 475.7C448 464.3 512 440.7 576 431.5C640 422.3 704 427.7 768 436.5C832 445.3 896 457.7 928 463.8L960 470L960 541L928 541C896 541 832 541 768 541C704 541 640 541 576 541C512 541 448 541 384 541C320 541 256 541 192 541C128 541 64 541 32 541L0 541Z" fill="#d73a67"></path><path d="M0 490L32 485.3C64 480.7 128 471.3 192 464.2C256 457 320 452 384 458.2C448 464.3 512 481.7 576 482.2C640 482.7 704 466.3 768 456.3C832 446.3 896 442.7 928 440.8L960 439L960 541L928 541C896 541 832 541 768 541C704 541 640 541 576 541C512 541 448 541 384 541C320 541 256 541 192 541C128 541 64 541 32 541L0 541Z" fill="#d13367"></path><path d="M0 490L32 487.2C64 484.3 128 478.7 192 481C256 483.3 320 493.7 384 497C448 500.3 512 496.7 576 494C640 491.3 704 489.7 768 490.8C832 492 896 496 928 498L960 500L960 541L928 541C896 541 832 541 768 541C704 541 640 541 576 541C512 541 448 541 384 541C320 541 256 541 192 541C128 541 64 541 32 541L0 541Z" fill="#cc2b68"></path><path d="M0 520L32 519.7C64 519.3 128 518.7 192 516.5C256 514.3 320 510.7 384 512.5C448 514.3 512 521.7 576 519.3C640 517 704 505 768 499.7C832 494.3 896 495.7 928 496.3L960 497L960 541L928 541C896 541 832 541 768 541C704 541 640 541 576 541C512 541 448 541 384 541C320 541 256 541 192 541C128 541 64 541 32 541L0 541Z" fill="#c62368"></path></svg>